# xmcd
#
# Track frame offsets:
#	150
#	150736
#	187282
#	210106
#	227327
#
# Disc length: 3324 seconds
#
# Revision: 1
# Processed by: cddbd v1.5.2PL0 Copyright (c) Steve Scherf et al.
# Submitted via: audiograbber 1.83.01
#
DISCID=350cfa05
DTITLE=Grateful Dead - 72-12-11 Winterland Arena, San Francisco CA
DYEAR=1900
DGENRE=
TTITLE0=Dark Star
TTITLE1=Stella Blue
TTITLE2=Big River
TTITLE3=Deal
TTITLE4=Tomorrow Is Forever
EXTD=
EXTT0=
EXTT1=
EXTT2=
EXTT3=
EXTT4=
PLAYORDER=
